<svg fill="none" height="36" width="33" xmlns="http://www.w3.org/2000/svg"><g clip-rule="evenodd" fill-rule="evenodd"><path d="M16.505.484H.717L3.816 31.77l12.69 3.63 12.678-3.63 3.2-31.286" fill="#e4492f"/><path d="M4.33 31.375l12.165 3.422 12.154-3.422 3.11-30.39H1.341zM16.506 36L3.3 32.282 0 0h33l-3.29 32.282z" fill="#131741"/><path d="M26.695 29.965l2.686-27.164H16.379v29.876" fill="#e96d31"/><path d="M21.024 23.122l-4.643 1.815-4.533-1.41V20.51l-4.24-.109.515 5.936 8.156 2.613 8.339-2.416 1.04-11.881h-14.74l-.413-4.013H25.97l.213-3.935H6.285L7.426 18.48h13.608" fill="#fff"/></g></svg>